# xmcd
#
# Track frame offsets: 
#        150
#        16192
#        32572
#        49675
#        61375
#        80515
#        94910
#        116140
#        130460
#        146700
#        159667
#
# Disc length: 2382 seconds
#
# Revision: 17
# Processed by: cddbd v1.5.2PL0 Copyright (c) Steve Scherf et al.
# Submitted via: ExactAudioCopyFreeDBPlugin 1.0
#
DISCID=95094c0b
DTITLE=Bob Marley and The Wailers - Rastaman Vibration
DYEAR=2001
DGENRE=Reggae
TTITLE0=Positive Vibration
TTITLE1=Roots, Rock, Reggae
TTITLE2=Johnny Was
TTITLE3=Cry To Me
TTITLE4=Want More
TTITLE5=Crazy Baldhead
TTITLE6=Who The Cap Fit
TTITLE7=Night Shift
TTITLE8=War
TTITLE9=Rat Race
TTITLE10=Jah Live
EXTD=YEAR: 2001
EXTT0=
EXTT1=
EXTT2=
EXTT3=
EXTT4=
EXTT5=
EXTT6=
EXTT7=
EXTT8=
EXTT9=
EXTT10=
PLAYORDER=
